<svg width="48" height="48" viewBox="0 0 48 48" fill="none" xmlns="http://www.w3.org/2000/svg">
<path d="M46 23.8877C46 35.9672 36.1591 45.7755 24 45.7755C11.8409 45.7755 2 35.9672 2 23.8877C2 11.8083 11.8409 2 24 2C36.1591 2 46 11.8083 46 23.8877Z" stroke="white" stroke-width="4"/>
<mask id="path-2-inside-1_1304_47382" fill="white">
<path d="M13.7385 45.4819C9.44748 43.4619 5.85468 40.2207 3.4144 36.1683C0.974123 32.1159 -0.204034 27.4343 0.0289192 22.7154C0.261872 17.9966 1.89547 13.4524 4.72314 9.65767C7.5508 5.8629 11.4455 2.98793 15.9148 1.39632C20.3841 -0.1953 25.2272 -0.432076 29.8317 0.71593C34.4362 1.86394 38.5952 4.34516 41.7829 7.84585C44.9706 11.3465 47.0438 15.7094 47.7403 20.3829C48.4367 25.0563 47.7252 29.8303 45.6957 34.1012L42.0725 32.3956C43.7631 28.8379 44.3558 24.8611 43.7756 20.9682C43.1955 17.0752 41.4685 13.4409 38.8132 10.5248C36.1578 7.60878 32.6933 5.54191 28.8578 4.58562C25.0223 3.62933 20.988 3.82657 17.265 5.15239C13.5421 6.4782 10.2978 8.87305 7.94237 12.0341C5.58693 15.1951 4.22614 18.9804 4.03209 22.9112C3.83804 26.842 4.81944 30.7418 6.8522 34.1175C8.88495 37.4931 11.8778 40.193 15.4522 41.8757L13.7385 45.4819Z"/>
</mask>
<path d="M13.7385 45.4819C9.44748 43.4619 5.85468 40.2207 3.4144 36.1683C0.974123 32.1159 -0.204034 27.4343 0.0289192 22.7154C0.261872 17.9966 1.89547 13.4524 4.72314 9.65767C7.5508 5.8629 11.4455 2.98793 15.9148 1.39632C20.3841 -0.1953 25.2272 -0.432076 29.8317 0.71593C34.4362 1.86394 38.5952 4.34516 41.7829 7.84585C44.9706 11.3465 47.0438 15.7094 47.7403 20.3829C48.4367 25.0563 47.7252 29.8303 45.6957 34.1012L42.0725 32.3956C43.7631 28.8379 44.3558 24.8611 43.7756 20.9682C43.1955 17.0752 41.4685 13.4409 38.8132 10.5248C36.1578 7.60878 32.6933 5.54191 28.8578 4.58562C25.0223 3.62933 20.988 3.82657 17.265 5.15239C13.5421 6.4782 10.2978 8.87305 7.94237 12.0341C5.58693 15.1951 4.22614 18.9804 4.03209 22.9112C3.83804 26.842 4.81944 30.7418 6.8522 34.1175C8.88495 37.4931 11.8778 40.193 15.4522 41.8757L13.7385 45.4819Z" stroke="#216FA3" stroke-width="8" mask="url(#path-2-inside-1_1304_47382)"/>
</svg>
